<?xml version="1.0" encoding="utf-8"?>
<!-- Generator: Adobe Illustrator 16.0.0, SVG Export Plug-In . SVG Version: 6.00 Build 0)  -->
<!DOCTYPE svg PUBLIC "-//W3C//DTD SVG 1.1//EN" "http://www.w3.org/Graphics/SVG/1.1/DTD/svg11.dtd">
<svg version="1.1" id="Layer_1" xmlns="http://www.w3.org/2000/svg" xmlns:xlink="http://www.w3.org/1999/xlink" x="0px" y="0px"
	 width="3456px" height="2592px" viewBox="0 0 3456 2592" enable-background="new 0 0 3456 2592" xml:space="preserve">
<g id="Layer_x0020_1">
	<text transform="matrix(1 0 0 1 981.5625 612.875)" fill="#373435" font-family="'MyriadPro-Regular'" font-size="36">Engine Co. 28 - Cleveland Park</text>
	<text transform="matrix(1 0 0 1 953.6875 784.9375)" fill="#373435" font-family="'MyriadPro-Regular'" font-size="36">Engine Co. 11 - Columbia Heights</text>
	<text transform="matrix(1 0 0 1 1038.5625 1050.875)" fill="#373435" font-family="'MyriadPro-Regular'" font-size="36">Engine Co. 15 - Anacostia</text>
	<text transform="matrix(1 0 0 1 2070.5625 693.875)" fill="#373435" font-family="'MyriadPro-Regular'" font-size="36">Engine Co. 12 - Brentwood</text>
	<text transform="matrix(1 0 0 1 2034.125 880.1875)" fill="#373435" font-family="'MyriadPro-Regular'" font-size="36">Engine Co. 30 - Lincoln Heights</text>
	<text transform="matrix(1 0 0 1 2031.625 1021.1875)" fill="#373435" font-family="'MyriadPro-Regular'" font-size="36">Engine Co. 8 - Stadium/Armory</text>
	<text transform="matrix(1 0 0 1 955.6875 958.1875)" fill="#373435" font-family="'MyriadPro-Regular'" font-size="36">Engine Co. 29 - Georgetown</text>
	<text transform="matrix(1 0 0 1 2051.75 511.1875)" fill="#373435" font-family="'MyriadPro-Regular'" font-size="36">Engine Co 22 - Brightwood</text>
	<path fill="#5A82B0" d="M1909.5,629.709c-31.265,9.729-65.121,21.687-99.998,35.881c-34.868,14.184-67.713,29.189-97.215,44.186
		c-0.371,3.959-0.561,8.008-0.561,12.065c0,3.138,0.1,6.285,0.38,9.423c28.4-16.52,63.828-33.852,102.852-49.659
		c39.042-15.916,76.223-27.972,107.586-35.683C1918.659,640.042,1914.306,634.678,1909.5,629.709z"/>
	<g>
		<path fill="#006838" d="M1759.007,795.731c-7.317,2.337-14.436,4.465-21.282,6.385c-16.278-21.994-25.998-49.966-25.998-80.373
			c0-54.123,30.623-100.447,74-119.095c-33.296,22.498-55.5,62.942-55.5,108.959
			C1730.227,743.835,1741.147,773.233,1759.007,795.731z"/>
		<path fill="#006838" d="M1889.608,830.494c-17.759,12.066-38.752,19.055-61.227,19.055c-29.882,0-57.072-12.265-77.704-32.427
			c7.028-2.336,14.236-4.771,21.463-7.305c20.253,18.45,46.25,29.596,74.642,29.596
			C1861.858,839.413,1876.384,836.274,1889.608,830.494z"/>
	</g>
	<g>
		<path fill="#009345" d="M1926.238,744.043c6.196-3.148,12.213-6.286,18.039-9.434c-3.604,40.543-24.606,75.415-54.669,95.884
			c-13.225,5.78-27.75,8.919-42.826,8.919c-28.392,0-54.389-11.146-74.642-29.596c18.5-6.483,37.452-13.68,56.882-21.588
			C1863.9,774.044,1896.735,759.039,1926.238,744.043z"/>
		<path fill="#009345" d="M1823.657,772.213c-22.385,9.126-44.218,17.035-64.65,23.518c-17.859-22.498-28.78-51.896-28.78-84.124
			c0-46.017,22.204-86.461,55.5-108.959c13.144-5.682,27.569-8.819,42.655-8.819c33.106,0,62.988,15.104,84.171,39.533
			c4.806,5.464,9.25,11.452,13.044,17.936c10.632,17.539,17.389,38.107,18.87,60.21c-5.646,3.643-11.661,7.296-18.039,11.047
			C1898.027,739.075,1862.689,756.406,1823.657,772.213z"/>
	</g>
	<path fill="#3F2D15" d="M1944.277,734.61c-5.826,3.147-11.843,6.285-18.039,9.434c-29.503,14.995-62.338,30.001-97.216,44.186
		c-19.43,7.908-38.382,15.104-56.882,21.588c-7.227,2.533-14.435,4.969-21.463,7.305c-7.308,2.425-14.525,4.761-21.553,6.988
		c-97.866,30.1-171.681,37.197-179.635,13.58c-7.958-23.617,52.167-70.842,144.297-117.778c-0.371,3.959-0.561,8.008-0.561,12.065
		c0,3.138,0.1,6.285,0.38,9.423c-46.53,27.171-74.47,52.303-69.845,66.189c4.625,13.788,40.884,12.878,92.319,0.307
		c6.938-1.722,14.146-3.652,21.644-5.78c6.847-1.92,13.965-4.048,21.282-6.385c20.433-6.482,42.266-14.392,64.65-23.518
		c39.032-15.808,74.37-33.139,102.771-49.659c6.378-3.751,12.394-7.404,18.039-11.047c35.519-22.805,55.871-43.284,51.797-55.143
		c-3.975-11.759-30.894-12.867-70.667-5.067c-3.794-6.483-8.238-12.472-13.044-17.936c86.944-24.538,150.584-28.992,157.991-7.098
		C2077.941,648.16,2026.137,690.929,1944.277,734.61z"/>
	<path fill="#FAAF40" d="M1944.738,733.908c-29.503,14.995-62.338,30.001-97.216,44.186c-34.877,14.193-68.634,26.15-99.897,35.881
		c-97.866,30.1-171.686,37.197-179.635,13.58c-7.958-23.617,52.167-70.842,144.297-117.778c-0.371,3.959-0.561,8.008-0.561,12.065
		c0,3.138,0.1,6.285,0.38,9.423c-46.53,27.171-74.47,52.303-69.845,66.189c4.625,13.788,40.884,12.878,92.319,0.307
		c31.363-7.7,68.544-19.767,107.576-35.683c39.032-15.808,74.37-33.139,102.771-49.659c46.521-27.171,74.551-52.401,69.836-66.189
		c-4.625-13.788-40.885-12.867-92.22-0.307c-3.885-5.88-8.238-11.244-13.044-16.213c97.775-30.101,171.586-37.197,179.544-13.581
		C2096.993,639.637,2036.868,686.97,1944.738,733.908z"/>
	<path fill="#808184" d="M1834.019,786.081c-57.813,52.302-103.412,72.366-140.882,82.809c18.97-15.808,44.958-34.06,73.548-56.964
		c0.361-0.1,0.642-0.198,1.012-0.308c18.5-6.483,37.461-13.679,56.892-21.588C1827.731,788.713,1830.875,787.397,1834.019,786.081z"
		/>
	<g>
		<path fill="#808184" d="M1961.062,584.356c0.234,9.473-62.348,132.854-93.981,167.21c-12.304,5.741-48.093,19.935-57.831,22.854
			c5.456-4.959,10.912-10.234,16.368-15.609c43.089-42.473,89.898-111.107,86.34-152.689c-0.01-0.139,8.111-15.055-0.217-25.19
			c-0.831-1.01-1.853-1.723-2.773-2.534c13.784-1.415,24.787,1.415,31.354,9.324
			C1946.428,595.125,1960.727,570.825,1961.062,584.356z"/>
		<g>
			<path fill="#404041" d="M1953.365,593.551c-15.031,0-8.374,23.438-25.384,22.627c-17.723-0.841-15.926-10.66-20.226-28.715
				c-3.017-12.669,4.743-11.273,17.877-23.151C1958.775,534.331,1970.718,593.551,1953.365,593.551z"/>
			<path fill="#929497" d="M1956.192,575.546c0,5.948-1.979,12.878-5.592,12.878c-3.622,0-13.297-1.268-16.396-14.57
				c-1.346-5.761,9.503-8.235,13.126-8.235C1950.944,565.619,1956.192,569.597,1956.192,575.546z"/>
			<path fill="#929497" d="M1923.438,610.537c-5.049-2.208-6.034-7.938-7.38-11.621c-1.996-5.474,1.563-8.057,9.422-11.125
				c19.231-7.513,10.993,13.709,9.647,17.391C1933.79,608.864,1928.479,612.734,1923.438,610.537z"/>
		</g>
	</g>
</g>
</svg>
